<svg version="1.1" xmlns="http://www.w3.org/2000/svg" xmlns:xlink="http://www.w3.org/1999/xlink" width="570.38066" height="252.81131" viewBox="0,0,570.38066,252.81131"><defs><radialGradient cx="620" cy="334.88984" r="282.69033" gradientUnits="userSpaceOnUse" id="color-1"><stop offset="0" stop-color="#000000" stop-opacity="0.09804"/><stop offset="1" stop-color="#000000" stop-opacity="0.03922"/></radialGradient></defs><g transform="translate(-334.80967,-208.48418)"><g stroke-miterlimit="10"><path d="M902.69033,419.79168c0,21.53935 -23.94454,39.00381 -53.46206,39.00381h-458.46276c-29.52373,0 -53.45584,-17.46899 -53.45584,-39.00381v-169.80822c0,-21.53935 23.93211,-38.99928 53.45584,-38.99928h458.45655c29.53616,0 53.46206,17.45992 53.46206,38.99928v169.80822z" fill="#ffaec8" stroke="url(#color-1)" stroke-width="5"/><text transform="translate(450.89282,258.83302) scale(0.57315,0.57315)" font-size="40" xml:space="preserve" fill="#ffffff" stroke="none" stroke-width="1" font-family="&quot;MPLUSRounded1c-Medium&quot;, Sans Serif" font-weight="normal" text-anchor="start"><tspan x="0" dy="0">KỸ NĂNG SỐNG - MỐI QUAN HỆ</tspan></text><text transform="translate(366.4138,302.23158) scale(0.5,0.5)" font-size="40" xml:space="preserve" fill="#ffffff" stroke="none" stroke-width="1" font-family="&quot;MPLUSRounded1c-Medium&quot;, Sans Serif" font-weight="normal" text-anchor="start"><tspan x="0" dy="0">Đây là bài trắc nghiệm về cách bạn tương tác với bạn</tspan><tspan x="0" dy="46.150000000000006px">bè, thầy cô và gia đình. Kiểm tra khả năng  giải  quyết</tspan><tspan x="0" dy="46.150000000000006px">mâu thuẫn, nói lời từ chối, và xây dựng các mối  quan</tspan><tspan x="0" dy="46.150000000000006px">hệ tích cực và an toàn của bạn</tspan></text><text transform="translate(376.25601,428.54002) scale(0.5,0.5)" font-size="40" xml:space="preserve" fill="#ffffff" stroke="none" stroke-width="1" font-family="&quot;MPLUSRounded1c-Medium&quot;, Sans Serif" font-weight="normal" text-anchor="start"><tspan x="0" dy="0">Số câu hỏi: 10 câu</tspan></text><text transform="translate(675.70232,428.61891) scale(0.5,0.5)" font-size="40" xml:space="preserve" fill="#ffffff" stroke="none" stroke-width="1" font-family="&quot;MPLUSRounded1c-Medium&quot;, Sans Serif" font-weight="normal" text-anchor="start"><tspan x="0" dy="0">Thời gian: 5 phút</tspan></text></g></g></svg>